<?xml version="1.0" encoding="UTF-8"?>
<svg xmlns="http://www.w3.org/2000/svg" xmlns:xlink="http://www.w3.org/1999/xlink" width="40px" height="40px" viewBox="0 0 40 40" version="1.1">
<g id="surface1">
<path style=" stroke:none;fill-rule:nonzero;fill:rgb(94.901961%,83.529412%,62.352941%);fill-opacity:1;" d="M 35.773438 7.761719 C 35.773438 8.042969 35.714844 8.3125 35.609375 8.550781 C 35.304688 9.257812 34.601562 9.753906 33.78125 9.753906 C 32.683594 9.753906 31.789062 8.863281 31.789062 7.761719 C 31.789062 7.628906 31.804688 7.5 31.828125 7.371094 C 32.011719 6.460938 32.816406 5.773438 33.78125 5.773438 C 34.878906 5.773438 35.773438 6.664062 35.773438 7.761719 Z M 35.773438 7.761719 "/>
<path style=" stroke:none;fill-rule:nonzero;fill:rgb(90.196078%,69.803922%,38.823529%);fill-opacity:1;" d="M 26.253906 35.683594 C 26.667969 36.046875 26.929688 36.582031 26.929688 37.175781 C 26.929688 38.277344 26.039062 39.167969 24.9375 39.167969 C 24.277344 39.167969 23.695312 38.847656 23.332031 38.351562 C 23.089844 38.023438 22.949219 37.617188 22.949219 37.175781 C 22.949219 36.078125 23.839844 35.1875 24.9375 35.1875 C 25.441406 35.1875 25.902344 35.371094 26.253906 35.683594 Z M 26.253906 35.683594 "/>
<path style=" stroke:none;fill-rule:nonzero;fill:rgb(100%,44.313725%,14.117647%);fill-opacity:1;" d="M 20.890625 16.796875 C 22.605469 16.796875 24 18.191406 24 19.910156 C 24 21.625 22.605469 23.019531 20.890625 23.019531 C 19.171875 23.019531 17.777344 21.625 17.777344 19.910156 C 17.777344 18.191406 19.171875 16.796875 20.890625 16.796875 Z M 20.890625 16.796875 "/>
<path style=" stroke:none;fill-rule:nonzero;fill:rgb(55.686275%,79.215686%,75.686275%);fill-opacity:1;" d="M 3.910156 12.789062 C 5.007812 12.789062 5.898438 13.679688 5.898438 14.777344 C 5.898438 15.65625 5.332031 16.398438 4.546875 16.664062 C 4.34375 16.734375 4.132812 16.769531 3.910156 16.769531 C 2.808594 16.769531 1.917969 15.878906 1.917969 14.777344 C 1.917969 13.75 2.695312 12.90625 3.695312 12.800781 C 3.765625 12.792969 3.835938 12.789062 3.910156 12.789062 Z M 3.910156 12.789062 "/>
<path style=" stroke:none;fill-rule:nonzero;fill:rgb(36.862745%,16.470588%,25.490196%);fill-opacity:1;" d="M 20.890625 39.816406 C 17.773438 39.816406 14.867188 37.234375 12.914062 32.726562 C 11.972656 30.550781 11.292969 28.058594 10.898438 25.320312 C 10.644531 23.566406 10.519531 21.746094 10.519531 19.910156 C 10.519531 18.074219 10.644531 16.253906 10.898438 14.5 C 11.292969 11.757812 11.972656 9.265625 12.914062 7.089844 C 14.867188 2.585938 17.773438 0 20.890625 0 C 24.003906 0 26.910156 2.585938 28.863281 7.089844 C 29.808594 9.265625 30.484375 11.761719 30.878906 14.5 C 31.132812 16.253906 31.261719 18.074219 31.261719 19.910156 C 31.261719 21.746094 31.132812 23.566406 30.878906 25.320312 C 30.484375 28.058594 29.808594 30.550781 28.863281 32.726562 C 28.296875 34.035156 27.644531 35.195312 26.925781 36.175781 L 25.582031 35.191406 C 26.226562 34.308594 26.816406 33.257812 27.335938 32.066406 C 28.207031 30.054688 28.863281 27.636719 29.230469 25.082031 C 29.472656 23.40625 29.59375 21.664062 29.59375 19.910156 C 29.59375 18.152344 29.472656 16.414062 29.230469 14.738281 C 28.863281 12.179688 28.207031 9.765625 27.335938 7.753906 C 25.660156 3.886719 23.308594 1.667969 20.890625 1.667969 C 18.46875 1.667969 16.121094 3.886719 14.445312 7.753906 C 13.570312 9.765625 12.917969 12.179688 12.546875 14.738281 C 12.308594 16.410156 12.183594 18.152344 12.183594 19.910156 C 12.183594 21.664062 12.308594 23.40625 12.546875 25.082031 C 12.917969 27.636719 13.570312 30.050781 14.445312 32.0625 C 16.121094 35.933594 18.46875 38.152344 20.890625 38.152344 C 21.582031 38.152344 22.273438 37.972656 22.941406 37.617188 L 23.722656 39.089844 C 22.808594 39.574219 21.855469 39.816406 20.890625 39.816406 Z M 20.890625 39.816406 "/>
<path style=" stroke:none;fill-rule:nonzero;fill:rgb(36.862745%,16.470588%,25.490196%);fill-opacity:1;" d="M 21.199219 31.265625 L 20.578125 29.71875 C 22.148438 29.089844 23.714844 28.328125 25.242188 27.445312 C 26.761719 26.570312 28.207031 25.59375 29.539062 24.546875 C 31.570312 22.949219 33.332031 21.171875 34.640625 19.414062 C 37.152344 16.027344 37.898438 12.882812 36.6875 10.789062 C 36.335938 10.179688 35.824219 9.667969 35.167969 9.261719 L 36.046875 7.84375 C 36.9375 8.398438 37.640625 9.105469 38.128906 9.953125 C 39.6875 12.652344 38.902344 16.460938 35.976562 20.40625 C 34.566406 22.3125 32.746094 24.144531 30.570312 25.855469 C 29.175781 26.953125 27.664062 27.972656 26.074219 28.890625 C 24.480469 29.808594 22.839844 30.609375 21.199219 31.265625 Z M 21.199219 31.265625 "/>
<path style=" stroke:none;fill-rule:nonzero;fill:rgb(36.862745%,16.470588%,25.490196%);fill-opacity:1;" d="M 11.53125 33.359375 C 7.773438 33.359375 4.957031 32.132812 3.648438 29.863281 C 2.089844 27.164062 2.875 23.355469 5.800781 19.414062 C 7.214844 17.503906 9.035156 15.671875 11.207031 13.960938 C 12.597656 12.867188 14.109375 11.847656 15.703125 10.925781 C 17.292969 10.011719 18.933594 9.210938 20.578125 8.550781 C 23.152344 7.523438 25.648438 6.863281 28.003906 6.59375 C 29.402344 6.433594 30.71875 6.414062 31.917969 6.542969 L 31.742188 8.199219 C 30.664062 8.085938 29.472656 8.101562 28.195312 8.25 C 26.015625 8.5 23.597656 9.140625 21.199219 10.097656 C 19.625 10.730469 18.054688 11.492188 16.535156 12.371094 C 15.011719 13.25 13.566406 14.226562 12.238281 15.273438 C 10.210938 16.867188 8.449219 18.640625 7.136719 20.40625 C 4.628906 23.789062 3.882812 26.933594 5.09375 29.03125 C 6.300781 31.125 9.398438 32.050781 13.582031 31.566406 C 15.761719 31.316406 18.179688 30.679688 20.578125 29.71875 L 21.199219 31.265625 C 18.628906 32.292969 16.132812 32.953125 13.773438 33.222656 C 12.996094 33.3125 12.246094 33.359375 11.53125 33.359375 Z M 11.53125 33.359375 "/>
<path style=" stroke:none;fill-rule:nonzero;fill:rgb(36.862745%,16.470588%,25.490196%);fill-opacity:1;" d="M 30.246094 33.359375 C 29.53125 33.359375 28.78125 33.3125 28.003906 33.222656 C 25.695312 32.957031 23.246094 32.320312 20.730469 31.324219 L 20.578125 31.265625 C 18.9375 30.609375 17.300781 29.8125 15.703125 28.890625 C 14.109375 27.972656 12.597656 26.949219 11.207031 25.855469 C 9.03125 24.144531 7.214844 22.3125 5.800781 20.40625 C 4.949219 19.257812 4.269531 18.113281 3.78125 17 L 5.308594 16.328125 C 5.746094 17.328125 6.363281 18.367188 7.140625 19.414062 C 8.445312 21.171875 10.207031 22.949219 12.238281 24.546875 C 13.566406 25.589844 15.011719 26.566406 16.535156 27.445312 C 18.035156 28.3125 19.578125 29.066406 21.113281 29.683594 L 21.199219 29.71875 C 23.597656 30.679688 26.015625 31.316406 28.195312 31.566406 C 32.382812 32.050781 35.476562 31.125 36.6875 29.03125 C 37.898438 26.933594 37.152344 23.789062 34.640625 20.40625 C 33.332031 18.644531 31.570312 16.871094 29.539062 15.273438 C 28.210938 14.226562 26.765625 13.25 25.242188 12.371094 C 23.714844 11.492188 22.148438 10.726562 20.578125 10.097656 C 18.183594 9.140625 15.761719 8.5 13.585938 8.25 C 9.398438 7.765625 6.300781 8.691406 5.09375 10.789062 C 4.746094 11.386719 4.558594 12.074219 4.527344 12.832031 L 2.863281 12.769531 C 2.902344 11.738281 3.167969 10.789062 3.648438 9.957031 C 5.207031 7.257812 8.898438 6.03125 13.773438 6.59375 C 16.132812 6.863281 18.628906 7.523438 21.199219 8.550781 C 22.839844 9.207031 24.480469 10.007812 26.074219 10.925781 C 27.667969 11.847656 29.179688 12.871094 30.570312 13.964844 C 32.746094 15.675781 34.566406 17.507812 35.976562 19.414062 C 38.902344 23.355469 39.6875 27.164062 38.128906 29.863281 C 36.820312 32.128906 34.007812 33.359375 30.246094 33.359375 Z M 30.246094 33.359375 "/>
<path style=" stroke:none;fill-rule:nonzero;fill:rgb(36.862745%,16.470588%,25.490196%);fill-opacity:1;" d="M 20.890625 23.851562 C 18.714844 23.851562 16.945312 22.082031 16.945312 19.910156 C 16.945312 17.734375 18.714844 15.964844 20.890625 15.964844 C 23.0625 15.964844 24.832031 17.734375 24.832031 19.910156 C 24.832031 22.082031 23.0625 23.851562 20.890625 23.851562 Z M 20.890625 17.632812 C 19.632812 17.632812 18.613281 18.652344 18.613281 19.910156 C 18.613281 21.164062 19.632812 22.1875 20.890625 22.1875 C 22.144531 22.1875 23.164062 21.164062 23.164062 19.910156 C 23.164062 18.652344 22.144531 17.632812 20.890625 17.632812 Z M 20.890625 17.632812 "/>
<path style=" stroke:none;fill-rule:nonzero;fill:rgb(36.862745%,16.470588%,25.490196%);fill-opacity:1;" d="M 3.910156 17.601562 C 2.351562 17.601562 1.085938 16.335938 1.085938 14.777344 C 1.085938 13.332031 2.167969 12.125 3.609375 11.96875 L 3.617188 11.96875 C 3.71875 11.960938 3.816406 11.953125 3.910156 11.953125 C 5.464844 11.953125 6.734375 13.222656 6.734375 14.777344 C 6.734375 15.992188 5.960938 17.066406 4.8125 17.453125 C 4.519531 17.554688 4.21875 17.601562 3.910156 17.601562 Z M 3.78125 13.628906 C 3.195312 13.691406 2.75 14.1875 2.75 14.777344 C 2.75 15.417969 3.269531 15.9375 3.910156 15.9375 C 4.035156 15.9375 4.160156 15.914062 4.277344 15.875 C 4.75 15.714844 5.066406 15.277344 5.066406 14.777344 C 5.066406 14.140625 4.546875 13.621094 3.910156 13.621094 C 3.871094 13.621094 3.828125 13.625 3.78125 13.628906 Z M 3.78125 13.628906 "/>
<path style=" stroke:none;fill-rule:nonzero;fill:rgb(36.862745%,16.470588%,25.490196%);fill-opacity:1;" d="M 33.78125 10.585938 C 32.222656 10.585938 30.957031 9.320312 30.957031 7.761719 C 30.957031 7.578125 30.976562 7.390625 31.011719 7.210938 L 31.011719 7.207031 C 31.273438 5.894531 32.4375 4.9375 33.78125 4.9375 C 35.339844 4.9375 36.605469 6.207031 36.605469 7.761719 C 36.605469 8.152344 36.527344 8.53125 36.371094 8.882812 C 35.925781 9.917969 34.910156 10.585938 33.78125 10.585938 Z M 32.648438 7.535156 C 32.632812 7.609375 32.625 7.6875 32.625 7.761719 C 32.625 8.402344 33.144531 8.921875 33.78125 8.921875 C 34.242188 8.921875 34.660156 8.644531 34.84375 8.222656 C 34.90625 8.078125 34.9375 7.921875 34.9375 7.761719 C 34.9375 7.125 34.417969 6.605469 33.78125 6.605469 C 33.230469 6.605469 32.753906 6.996094 32.648438 7.535156 Z M 32.648438 7.535156 "/>
<path style=" stroke:none;fill-rule:nonzero;fill:rgb(36.862745%,16.470588%,25.490196%);fill-opacity:1;" d="M 24.9375 40 C 24.042969 40 23.191406 39.566406 22.660156 38.84375 C 22.304688 38.359375 22.113281 37.78125 22.113281 37.175781 C 22.113281 35.621094 23.382812 34.351562 24.9375 34.351562 C 25.628906 34.351562 26.289062 34.601562 26.804688 35.058594 C 27.414062 35.59375 27.761719 36.367188 27.761719 37.175781 C 27.761719 38.734375 26.496094 40 24.9375 40 Z M 24.9375 36.019531 C 24.300781 36.019531 23.78125 36.539062 23.78125 37.175781 C 23.78125 37.425781 23.859375 37.660156 24.003906 37.859375 C 24.226562 38.160156 24.566406 38.332031 24.9375 38.332031 C 25.578125 38.332031 26.097656 37.8125 26.097656 37.175781 C 26.097656 36.84375 25.953125 36.527344 25.703125 36.308594 L 25.699219 36.308594 C 25.492188 36.121094 25.21875 36.019531 24.9375 36.019531 Z M 24.9375 36.019531 "/>
</g>
</svg>
